# xmcd
#
# Track frame offsets:
#	150
#	13489
#	28431
#	43512
#	55800
#	74217
#	87917
#	102146
#	118971
#	132848
#	146623
#	158424
#	171377
#	184239
#	196500
#	211787
#	225699
#
# Disc length: 4482 seconds
#
# Revision: 0
# Processed by: cddbd v1.5.2PL0 Copyright (c) Steve Scherf et al.
# Submitted via: dBpowerAMP V4.0
#
DISCID=f6118011
DTITLE=Les Fatals Picards - Pamplemousse Mécanique
DYEAR=2006
DGENRE=Ska
TTITLE0=Bernard Lavilliers
TTITLE1=La Sécurité de l'emploi
TTITLE2=Mon père était tellement de gauche
TTITLE3=L'amour à la française
TTITLE4=Djembe man
TTITLE5=Seul et célibataire
TTITLE6=Au mariage de Kevin et de ma soeur
TTITLE7=Les dictateurs
TTITLE8=Moi je vis chez Amélie
TTITLE9=Commandante
TTITLE10=Monter le pantalon
TTITLE11=Cure toujours
TTITLE12=Je viens d'ici
TTITLE13=Partenaire particulier
TTITLE14=Française des jeux
TTITLE15=Et puis merde,je vote à droite
TTITLE16=On se demandait (où sont les pistes introuvables)
EXTD=
EXTT0=
EXTT1=
EXTT2=
EXTT3=
EXTT4=
EXTT5=
EXTT6=
EXTT7=
EXTT8=
EXTT9=
EXTT10=
EXTT11=
EXTT12=
EXTT13=
EXTT14=
EXTT15=
EXTT16=
PLAYORDER=
